<svg xmlns="http://www.w3.org/2000/svg" xmlns:xlink="http://www.w3.org/1999/xlink" viewBox="0 0 600.03 270.04"><defs><style>.cls-1{fill:none;}.cls-2{fill:#aa7f68;}.cls-3{fill:#e2cdc3;stroke:#aa7f68;stroke-miterlimit:10;stroke-width:2px;}.cls-4{fill:url(#sombra);}.cls-5{fill:#586d35;}.cls-6{fill:url(#Degradado_sin_nombre_44);}</style><pattern id="sombra" data-name="sombra" width="4" height="3" patternTransform="translate(6.75)" patternUnits="userSpaceOnUse" viewBox="0 0 4 3"><rect class="cls-1" width="4" height="3"/><path class="cls-2" d="M3.23,2.25H24.77a.75.75,0,0,0,0-1.5H3.23a.75.75,0,0,0,0,1.5Z"/><path class="cls-2" d="M1.23,2.25H22.77a.75.75,0,0,0,0-1.5H1.23a.75.75,0,0,0,0,1.5Z"/><path class="cls-2" d="M-.77,2.25H20.77a.75.75,0,0,0,0-1.5H-.77a.75.75,0,0,0,0,1.5Z"/><path class="cls-2" d="M-2.77,2.25H18.77a.75.75,0,0,0,0-1.5H-2.77a.75.75,0,0,0,0,1.5Z"/><path class="cls-2" d="M-4.77,2.25H16.77a.75.75,0,0,0,0-1.5H-4.77a.75.75,0,0,0,0,1.5Z"/><path class="cls-2" d="M-6.77,2.25H14.77a.75.75,0,0,0,0-1.5H-6.77a.75.75,0,0,0,0,1.5Z"/><path class="cls-2" d="M-8.77,2.25H12.77a.75.75,0,0,0,0-1.5H-8.77a.75.75,0,0,0,0,1.5Z"/><path class="cls-2" d="M-10.77,2.25H10.77a.75.75,0,0,0,0-1.5H-10.77a.75.75,0,0,0,0,1.5Z"/><path class="cls-2" d="M-12.77,2.25H8.77a.75.75,0,0,0,0-1.5H-12.77a.75.75,0,0,0,0,1.5Z"/><path class="cls-2" d="M-14.77,2.25H6.77a.75.75,0,0,0,0-1.5H-14.77a.75.75,0,0,0,0,1.5Z"/><path class="cls-2" d="M-16.77,2.25H4.77a.75.75,0,0,0,0-1.5H-16.77a.75.75,0,0,0,0,1.5Z"/><path class="cls-2" d="M-18.77,2.25H2.77a.75.75,0,0,0,0-1.5H-18.77a.75.75,0,0,0,0,1.5Z"/><path class="cls-2" d="M-20.77,2.25H.77a.75.75,0,0,0,0-1.5H-20.77a.75.75,0,0,0,0,1.5Z"/></pattern><linearGradient id="Degradado_sin_nombre_44" x1="297.37" y1="298.85" x2="300.58" y2="89.38" gradientUnits="userSpaceOnUse"><stop offset="0" stop-color="#ffaf87"/><stop offset="0.5" stop-color="#ed6a5e"/><stop offset="0.99" stop-color="#9ea248"/></linearGradient></defs><title>Recurso 12</title><g id="Capa_2" data-name="Capa 2"><g id="Capa_1-2" data-name="Capa 1"><path id="CONTORNO" class="cls-3" d="M599,97.44c0-17.93-13.15-36.09-38.29-36.09a63.85,63.85,0,0,0-14.93,1.79c.89-2.71,1.66-5.25,2.32-7.64A36.1,36.1,0,0,0,542,23.8a36.35,36.35,0,0,0-43-11.59c-2,.82-4.18,1.71-6.6,2.67A77.81,77.81,0,0,0,482,19,68.09,68.09,0,0,0,459.7,38.24a39.64,39.64,0,0,0-5.22,14.3,39,39,0,0,0-.2,10.66,119.72,119.72,0,0,0-40.67,12.34c-6.22-7.91-16-12.82-27.45-12.82-8.67,0-18,1.93-28.63,5.89a123.75,123.75,0,0,0-15.22,6.9c-6.22-7.89-16-12.79-27.42-12.79-8.67,0-18,1.93-28.63,5.89A125.48,125.48,0,0,0,272,75a56.33,56.33,0,0,0-5.37-7.2c-.9-1-1.83-2-2.8-3a34.71,34.71,0,0,0,1.37-3.9l3.27-11.58A38,38,0,0,0,231.9,1h-.1a123.77,123.77,0,0,0-43.54,8.1,131.13,131.13,0,0,0-38.54,22.45l-.15.13A103.5,103.5,0,0,0,123.12,66q-1.35,2.8-2.5,5.66a88.19,88.19,0,0,0-32.52-6c-25.15,0-46.95,8.9-63,25.75s-24,38.23-24,64c0,33.13,12.55,61.4,36.28,81.76,21.33,18.31,47.19,27.6,76.85,27.6,40.11,0,76.93-15.81,109.49-47a167.27,167.27,0,0,0,12-12.89,43.33,43.33,0,0,0,18.94,4.26c12.66,0,25.41-4.5,39.25-14a42.92,42.92,0,0,0,32,14H326a38.85,38.85,0,0,0-5.57,18.1l-.05.44v2.87a37.69,37.69,0,0,0,8.94,23.62,39.15,39.15,0,0,0,15.37,11.27A46.38,46.38,0,0,0,363,269c14,0,28.61-4.77,43.54-14.17a114.58,114.58,0,0,0,33.36-31.55,151.19,151.19,0,0,0,10.68-18.18,36.67,36.67,0,0,0,16.81,4.07,42.67,42.67,0,0,0,17.92-3.66,43.73,43.73,0,0,0,20.91,5c17.62,0,35.69-8.95,55.19-27.35,15.75-14.8,23.41-29.54,23.41-45.05v-.11a31.47,31.47,0,0,0-.77-6.91,73.42,73.42,0,0,0,5.41-6.73C595.83,115.52,599,106.44,599,97.44ZM123.79,196.23A63.49,63.49,0,0,1,97.53,191a45.86,45.86,0,0,1-17.76-13.45l-.11-.15C72,167.9,68.45,158.18,68.45,146.78c0-8.08,2.57-10.78,3.67-11.94,1.47-1.55,3.51-3.2,9.16-3.2,1.73,0,7,0,15,6.65,3.38,2.8,11,10.68,24.36,32l8.82,14.06.16.28a46.47,46.47,0,0,0,3,4.43c1.5,2,3.08,4,4.78,6A72.24,72.24,0,0,1,123.79,196.23Zm428.6-90.34c-3.13,9.32-16.45,13.73-16.45,13.73,3-5.09,7.24-9.78,11.23-13.84a6.34,6.34,0,0,1,3.44-2.15A1.7,1.7,0,0,1,552.39,105.89Z"/><g id="SOMBRA-61" data-name="SOMBRA"><path class="cls-4" d="M476,180.59l-.12,0A.29.29,0,0,0,476,180.59Z"/><path class="cls-4" d="M476,180.59c4.21.77,10.92-.78,10.92-.78,3.58-2.26,5.29-9.57,5.29-9.57C481,180.52,476.77,180.67,476,180.59Z"/><path class="cls-4" d="M419.47,172.65l4.83-14.81a79.38,79.38,0,0,1-32.52,23.38S408.62,182.23,419.47,172.65Z"/><path class="cls-4" d="M392.34,167.87C396.47,151,407.13,132.8,429.17,111,404.21,124.39,390,147.86,392.34,167.87Z"/><path class="cls-4" d="M361.42,122.49c-2.64,3.6-1.56,4.68-1.56,4.68a5.25,5.25,0,0,1,4.73,4.92c.6,4.73-3.12,5.58-3.12,5.58,8.65.67,5.68-9.15,3.37-11.81s3.52-9.4,3.52-9.4A25.57,25.57,0,0,0,361.42,122.49Z"/><path class="cls-4" d="M289.84,122.49c-2.64,3.6-1.56,4.68-1.56,4.68a5.24,5.24,0,0,1,4.73,4.92c.6,4.73-3.12,5.58-3.12,5.58,8.66.67,5.68-9.15,3.37-11.81s3.52-9.4,3.52-9.4A25.57,25.57,0,0,0,289.84,122.49Z"/><path class="cls-4" d="M196.8,142.26c-1.83.3-3.73.58-5.73.83A17.89,17.89,0,0,0,196.8,142.26Z"/><path class="cls-4" d="M196.8,142.26c47.61-8,40.58-35.1,40.58-35.1s-3.59,11-20.22,24C208.14,138.11,201.23,141,196.8,142.26Z"/><path class="cls-4" d="M374.64,104.18c-12.62,2.91-23.61,9.7-32.14,22.39C332.08,147.85,328,163.65,334.73,170,342.73,142.16,356.09,120.28,374.64,104.18Z"/><path class="cls-4" d="M262.91,170c8-27.87,21.35-49.75,39.9-65.85-12.61,2.91-23.61,9.7-32.13,22.39C260.26,147.85,256.15,163.65,262.91,170Z"/><path class="cls-4" d="M184.38,189.8s16,4.08,20.9-6.74-8.65-14.61-8.65-14.61,6.55,4.7,4.37,12.09C201,180.54,197.89,192,184.38,189.8Z"/><path class="cls-4" d="M81,104.11s-24.33,3.13-31.45,23.11c0,0-8.78,14.41-1.74,40,0,0,4.52,25.72,33.19,46.4,0,0-32.32-34.06-25.37-66.9S81,104.11,81,104.11Z"/><path class="cls-4" d="M176,130.14c-22.28-60.12,41.2-87.88,41.2-87.88-7.36-.58-41.27,6.66-52,42.1C154.74,119,176,130.14,176,130.14Z"/><path class="cls-4" d="M532.33,120.06c3.26-7.37,19.48-19,19.48-19-10.22-.29-23.76,17.48-23.76,17.48A6.47,6.47,0,0,1,532.33,120.06Z"/><path class="cls-4" d="M522.63,127.11c-2.21,2-10.72,24.42-10.72,33.44s3.66,9.11,3.66,9.11c-2.47-16.77,13-39.91,13-39.91C523.48,130.33,522.63,127.11,522.63,127.11Z"/><path class="cls-4" d="M485.38,101.09c-1.11-9.38-10-8-10-8,3.93-.32,9.86,4.16,6,10.19s-10.08,3.27-10.08,3.27C481.28,112.86,485.38,101.09,485.38,101.09Z"/><path class="cls-4" d="M513.36,182.88c-1.27-.25-2.71-.53-4.52-.73A9.4,9.4,0,0,0,513.36,182.88Z"/><path class="cls-4" d="M539.93,169.09c-13.08,11.3-21.78,13.66-26.57,13.79,6.22,1.24,8.38,1.9,28.84-10.18,24.65-14.56,18.38-34.42,18.38-34.42C562.92,153.89,539.93,169.09,539.93,169.09Z"/><path class="cls-4" d="M261.41,101.92C260,89.79,254.7,82.26,239.68,80.8a24.47,24.47,0,0,1,16.56,17,28.47,28.47,0,0,1,.47,12.29c-1,5.78-3.23,17-7.22,26.81l7.82-8.4S262.78,114,261.41,101.92Z"/><path class="cls-4" d="M240,61.31c2.87-.91,4-4.84,4-4.84l3.09-12.34s2-8.13-3.86-10c0,0,3.51,1.89,1.61,9.46L242,54.47A10.53,10.53,0,0,1,239.58,59a8,8,0,0,1-6.92,2.66S237.14,62.22,240,61.31Z"/><path class="cls-4" d="M578,93.4a31.35,31.35,0,0,0-7.23-1c14.58,3.61-6.24,24.07-6.24,24.07s-1,3.14-13.35,8.21c-11.12,4.55-15.89,5-16.74,5,16.66-.38,24.45-3.67,24.45-3.67s8.82-4,17-16.77S578,93.4,578,93.4Z"/><path class="cls-4" d="M534.39,129.69h0Z"/><path class="cls-4" d="M518.44,39.41s7.7-.27,7.13,9c0,0-2.11,7-3.55,11.14L508.08,93.72s-28.75,63.59-26,70.72l3.27-2.4s2.47-14.71,14.64-42S521.1,70.69,521.1,70.69,538.58,36.25,518.44,39.41Z"/><path class="cls-4" d="M449.41,123s3.65,6.09-1.43,24-17.67,47.94-17.67,47.94-13,25.8-27.82,32.91c0,0-19.1,16-36.57,13.6,0,0,16.25,6.91,37.17-7.1a90.13,90.13,0,0,0,10.9-8.66,104.67,104.67,0,0,0,28.11-43.9l8.58-25.65S460.19,127.66,449.41,123Z"/><path class="cls-4" d="M322.51,93.4a3.72,3.72,0,0,1,2.75,4.21c-.23,3.62-2.12,4.64-2.12,4.64a5.59,5.59,0,0,1-3.06.94,4.87,4.87,0,0,0,4.43,0c2.48-1.18,3.35-4.63,3.35-4.63S328.57,92.42,322.51,93.4Z"/><path class="cls-4" d="M395.92,103.19c2.48-1.18,3.35-4.63,3.35-4.63s.71-6.14-5.35-5.16a3.72,3.72,0,0,1,2.75,4.21c-.23,3.62-2.12,4.64-2.12,4.64a5.59,5.59,0,0,1-3.06.94A4.87,4.87,0,0,0,395.92,103.19Z"/><path class="cls-4" d="M138.6,235.74l11.65-1c54.67-13.22,86-41,95.43-82.52l-4.31-4.41C224,195.13,185.51,226.28,138.6,235.74Z"/><path class="cls-4" d="M322.21,116.46a13,13,0,0,0-7-6.14c11.29,12.05-2.51,32.78-2.51,32.78-31.46,41.12-54.58,38.15-54.58,38.15s29.24,7.36,51.7-25.38S322.21,116.46,322.21,116.46Z"/><path class="cls-4" d="M381.12,155.87c22.46-32.75,12.42-39.41,12.42-39.41a12.93,12.93,0,0,0-7-6.14C397.81,122.37,384,143.1,384,143.1c-31.47,41.12-54.58,38.15-54.58,38.15S358.66,188.61,381.12,155.87Z"/><path class="cls-4" d="M152.17,130.14s20,31,22.85,38.31a14.89,14.89,0,0,1,10.51-4.51s-37.32-58-70.84-64.69C114.69,99.25,139.22,109.23,152.17,130.14Z"/></g><g id="LETRA"><path class="cls-5" d="M365.34,161.63q-20.79,18.48-34.53,18.48a12.86,12.86,0,0,1-9.92-4.31A15.38,15.38,0,0,1,317,165q0-14.38,10-30.07a95.24,95.24,0,0,1,26.4-27,91.15,91.15,0,0,1,19.68-10.18q10.67-4,18.11-4,4.62,0,4.62,4.09c0,.11,0,.22,0,.34a5,5,0,0,1-5.36,4.48c-2-.13-3.73-.2-5.23-.2q-27.62,0-42.3,21.2a85.89,85.89,0,0,0-9.76,19.27q-4,10.86-4,18.21a12.09,12.09,0,0,0,3,8.45,9.81,9.81,0,0,0,7.61,3.3q10.9,0,24.14-17.53t13.23-32.12a8.78,8.78,0,0,0-1.74-5.51,5.09,5.09,0,0,0-4.14-2.25q-6.09,0-11.78,8.82a3.21,3.21,0,0,0-.52,1.46c-.12,1.17,0,1.57.41,1.78a1,1,0,0,0,.18,0,5.28,5.28,0,0,1,4,7.69c-1.86,3.64-6,1.67-6,1.67-5.72-4.32-1.89-12.85-1.89-12.85h0c1.21-3,3.58-6,7.14-9.13q8.07-7.14,15.32-7.14a10.4,10.4,0,0,1,8.19,3.94,14.28,14.28,0,0,1,3.36,9.6Q389.59,140.33,365.34,161.63ZM315,111.72a10.4,10.4,0,0,0-8.19-3.94q-7.25,0-15.33,7.14-5.32,4.71-7.13,9.13h0s-3.82,8.53,1.9,12.85c0,0,4.15,2,6-1.67a5.28,5.28,0,0,0-4-7.69,1,1,0,0,1-.18,0c-.4-.21-.53-.61-.41-1.78a3.32,3.32,0,0,1,.51-1.46q5.7-8.82,11.79-8.82a5.09,5.09,0,0,1,4.14,2.25,8.78,8.78,0,0,1,1.73,5.51q0,14.6-13.22,32.12t-24.14,17.53a9.81,9.81,0,0,1-7.61-3.3,12.09,12.09,0,0,1-3-8.45q0-7.35,4-18.21a86.33,86.33,0,0,1,9.77-19.27q14.68-21.19,42.3-21.2c1.5,0,3.25.07,5.23.2a5,5,0,0,0,5.35-4.48c0-.12,0-.23,0-.34q0-4.09-4.62-4.09-7.45,0-18.11,4a91.15,91.15,0,0,0-19.68,10.18,95.24,95.24,0,0,0-26.4,27q-10,15.69-10,30.07a15.38,15.38,0,0,0,3.94,10.81,12.86,12.86,0,0,0,9.92,4.31q13.74,0,34.53-18.48,24.24-21.3,24.25-40.31A14.28,14.28,0,0,0,315,111.72Zm159-5.19c4.48,0,8.12-2.93,8.12-6.56S478.47,93.4,474,93.4l-.28,0-.6,0q-29.07,0-54.69,18.27a116.39,116.39,0,0,0-28.76,28.86q-11.24,16.38-11.23,29.39,0,11.24,8.82,11.23,7.35,0,20.1-9.28T434,147.15q-21.84,85.65-57,85.65c-1,0-2-.05-3-.13a.81.81,0,0,1-.72-1,8.47,8.47,0,0,0-.43-4.42,9.15,9.15,0,0,0-8.2-6,9,9,0,0,0-9.29,9c0,.05,0,.1,0,.14s0,.06,0,.09a8,8,0,0,0,2,5.41,9.08,9.08,0,0,0,3.88,2.8A16.34,16.34,0,0,0,368,240q12.39,0,27.55-9.55a84.54,84.54,0,0,0,24.72-23.3q14.18-20.37,27.5-64.56c1.69-7.54,1.71-13.44.95-18a5.17,5.17,0,0,0-9.94-1,102.76,102.76,0,0,1-11.79,22,102.9,102.9,0,0,1-16.53,18.89q-8.65,7.56-13.91,7.56-6.51,0-6.51-10.18,0-6.72,4.41-16.33a79.36,79.36,0,0,1,11.13-17.68,64.2,64.2,0,0,1,24.77-18.69q14-5.76,34.32-5.77h0a6,6,0,0,1,3.67,1.25A9.17,9.17,0,0,0,474,106.53Zm91.75-14.18q-14.28,0-32.54,13.65a88.93,88.93,0,0,0-24.61,28.55,80.1,80.1,0,0,0-7.75,18.92,18.13,18.13,0,0,1-6.9,10.16q-7.77,6.09-10.81,6.19c-2.66.14-3.92-1.37-3.78-4.51q.52-10.81,30-77.89,10.93-24.77,14.84-38.91a6.39,6.39,0,0,0-8.63-7.59c-2.5,1-5.28,2.16-8.34,3.36a45.84,45.84,0,0,0-8.07,3.14l-.29.11v0c-4.4,2.27-9,5.75-9.76,10.54s1.82,6.29,4.52,6.58a8.62,8.62,0,0,0,8.78-5.34,15.38,15.38,0,0,0,1-3.84,31.24,31.24,0,0,1,1.19-5.06,2.52,2.52,0,0,1,2.39-1.75h0q3.26,0,3.26,2.83,0,3.57-9,25.09l-10,23.93Q474.84,140,470.48,152.29t-4.35,19.1q0,8.82,6.3,8.82c4.79,0,7.46-.53,23.71-14a1.73,1.73,0,0,1,2.84,1.34v0q0,14,12.28,14,14.28,0,34.64-19.2,14-13.12,14-23.2v0a1.79,1.79,0,0,0-3.42-.73,82.6,82.6,0,0,1-15.73,23.5Q530,172.77,520.18,172.76q-9,0-9-10.81,0-10.5,5.56-23.94a87.41,87.41,0,0,1,14.17-23.51q12.18-14.27,23.83-14.27,6.51,0,6.51,5v0a10.65,10.65,0,0,1-2.76,6.9,58.53,58.53,0,0,1-6.63,6.32c-.38.3-.73.62-1.08.94a17.94,17.94,0,0,1-13.85,4.57h0a1.52,1.52,0,0,1-.54-.6h0a1.94,1.94,0,0,1-.32-.42,4.13,4.13,0,1,0-3.58,6.18h.31q4.62,0,13.17-3.47a65,65,0,0,0,14.12-7.55,46.38,46.38,0,0,0,10-10.13q4-5.62,4-9.61C574,94.39,571.27,92.35,565.74,92.35Zm-337.06-13h-5.79a23.33,23.33,0,0,0-5.88.73,29.93,29.93,0,0,0-4.18,1.3c-.4.17-1.58.78-1.58.78a.62.62,0,0,0,.18,1.18l1.75.27h.1q14.6,2.32,14.6,15.66,0,14.39-11.13,25a36.66,36.66,0,0,1-26.14,10.61q-13.63,0-21.78-8.66t-8.13-23.15a65.54,65.54,0,0,1,8.08-31.91Q176.86,56.36,190.19,49a63.22,63.22,0,0,1,31.07-7.66q15.12,0,16.27,6.81a3.64,3.64,0,0,1-1.26,2.64,2.06,2.06,0,0,1-.31.28c-2.19,1.5-4.66-.2-7,.33a4.35,4.35,0,0,0-3.14,4.32,5.53,5.53,0,0,0,3.08,4.58,7.76,7.76,0,0,0,5.65.38,9.92,9.92,0,0,0,6.32-5.89,5.12,5.12,0,0,0,.43-1l3.27-11.58A8,8,0,0,0,236.89,32h-.09a93.71,93.71,0,0,0-33,6.19A100.88,100.88,0,0,0,174,55.51,73.28,73.28,0,0,0,155.19,80a67.1,67.1,0,0,0-6.77,29.28q0,15.12,9.39,24.51t24.62,9.4q20.56,0,41.56-19.53,15-13.95,15-28.13a19.05,19.05,0,0,0-.15-2.39,5.53,5.53,0,0,1,.46.52c5.92,9.59,6.53,17.92,4.77,29.25-1.61,10.41-7.45,19.71-12,29.2Q214.55,188.61,188,207.92a98.33,98.33,0,0,1-59.2,19.31,93.6,93.6,0,0,1-38.42-7.82,75.59,75.59,0,0,1-29.07-22.2q-17.85-22.14-17.85-49.43,0-20.06,11.92-32.6t30.91-12.54q17.84,0,34.11,13.54,12.81,10.6,30.65,39.15l8.82,14.07c.54.85,1,1.73,1.59,2.52,3.92,5.16,7.5,9.31,12.67,12.3,7.23,4.17,12.95,4.27,12.95,4.27l.14,0c4.8,0,9.88-1.54,12.78-6.89A10.91,10.91,0,0,0,179.55,174h0a2,2,0,0,0-.11.89c-2.55-1.84-5.26-6.21-6.62-8.6-.26-.52-.54-1-.83-1.52l-.06-.1v0c-.15-.26-.3-.52-.46-.77l-17.37-26.64q-13.54-21-28.29-30.81a57.79,57.79,0,0,0-32.7-9.81q-25.6,0-41.36,16.48T36,156.38q0,36.84,25.82,59,23.71,20.37,57.31,20.37,48.39,0,88.7-38.63c20.82-20,43.76-57.91,47.65-87.48A26.93,26.93,0,0,0,228.68,79.34Z"/><path class="cls-5" d="M363,240a17.45,17.45,0,0,1-7.26-1.43,10,10,0,0,1-4.24-3.08,9,9,0,0,1-2.2-6v-.23a10,10,0,0,1,10-10h.3a10.21,10.21,0,0,1,9.11,6.69,9.51,9.51,0,0,1,.5,4.75c.88.07,1.78.11,2.69.11,22.29,0,40.79-27.25,55-81a170,170,0,0,1-24,21.87c-8.76,6.38-15.53,9.48-20.69,9.48-4.48,0-9.82-2.12-9.82-12.23,0-8.84,3.84-18.92,11.41-29.95a117.88,117.88,0,0,1,29-29.12C430,97.61,448.6,91.4,468.11,91.4l.63,0,.25,0c5,0,9.12,3.4,9.12,7.57s-4.09,7.56-9.12,7.56a10.23,10.23,0,0,1-6.19-2,5,5,0,0,0-3.06-1c-13.41,0-24.82,1.92-34,5.7a63.65,63.65,0,0,0-24.39,18.4,79,79,0,0,0-11,17.46c-2.86,6.24-4.32,11.59-4.32,15.91,0,9.18,4.15,9.18,5.51,9.18,3.23,0,7.69-2.46,13.25-7.31a102,102,0,0,0,16.37-18.71,102.48,102.48,0,0,0,11.67-21.76,6,6,0,0,1,5.75-4,6.1,6.1,0,0,1,6.12,5.16,48.3,48.3,0,0,1-1,18.34c-8.9,29.49-18.19,51.31-27.66,64.91a85.81,85.81,0,0,1-25,23.57C380.9,236.77,371.45,240,363,240Zm-248.91-4.3c-22.53,0-42-6.94-58-20.61C38.81,200.24,30,180.13,30,155.38c0-18,5.39-32.81,16-43.93S70.82,94.66,88.1,94.66a59,59,0,0,1,33.25,10c9.9,6.59,19.52,17,28.58,31.1l17.37,26.64c.14.22.28.45.41.68l.07.11-.14.09.17,0-.71.36-.1.06.86-.33c.28.47.57,1,.84,1.53a36.33,36.33,0,0,0,5.15,7.23A12,12,0,0,1,184.74,165a12.28,12.28,0,0,1,1.6.1,12,12,0,0,1,10.12,9.68,11.74,11.74,0,0,1-.53,6.19l0,.07,0,.07c-2.61,4.82-7.33,7.38-13.65,7.41h-.12l-.15,0c-.87,0-6.42-.41-13.33-4.4-5.09-2.94-8.74-7-13-12.56a19.06,19.06,0,0,1-1.15-1.77l-.5-.82-8.82-14.07c-11.78-18.85-22-31.94-30.44-38.91-10.61-8.83-21.87-13.31-33.47-13.31-12.32,0-22.48,4.12-30.19,12.23s-11.64,18.87-11.64,31.91c0,17.87,5.93,34.29,17.63,48.81a75,75,0,0,0,28.7,21.91,93.15,93.15,0,0,0,38,7.73,97.74,97.74,0,0,0,58.61-19.12c17.49-12.72,32.21-31.38,43.77-55.46,1-2.14,2.13-4.3,3.2-6.38,3.69-7.19,7.49-14.62,8.72-22.54,1.47-9.44,1.43-17.24-3.12-25.92-.44,9.25-5.58,18.52-15.3,27.56-14.12,13.13-28.33,19.79-42.24,19.79-10.38,0-18.9-3.26-25.33-9.69s-9.68-14.91-9.68-25.22a68.56,68.56,0,0,1,6.86-29.71,74.8,74.8,0,0,1,19.1-24.79,102.31,102.31,0,0,1,30.05-17.49A94.84,94.84,0,0,1,231.8,30a9,9,0,0,1,7.27,3.58,8.9,8.9,0,0,1,1.48,7.88L237.28,53a6.16,6.16,0,0,1-.48,1.17,11,11,0,0,1-7,6.43,9.77,9.77,0,0,1-2.72.39,8.11,8.11,0,0,1-3.66-.84,6.51,6.51,0,0,1-3.63-5.43,5.35,5.35,0,0,1,3.92-5.33A5.42,5.42,0,0,1,225,49.3a12.37,12.37,0,0,1,2.05.22,11.85,11.85,0,0,0,1.71.18,2.72,2.72,0,0,0,1.63-.46.7.7,0,0,0,.15-.13,2.71,2.71,0,0,0,1-1.89c-.66-3.87-5.8-5.88-15.27-5.88a62.4,62.4,0,0,0-30.58,7.54c-8.68,4.78-15.75,12.1-21,21.75a64.86,64.86,0,0,0-8,31.43c0,9.35,2.64,16.91,7.86,22.46s12.28,8.35,21.05,8.35a35.86,35.86,0,0,0,25.45-10.33c7.18-6.84,10.82-15,10.82-24.26,0-8.4-4.5-13.2-13.76-14.68l-1.84-.28a1.63,1.63,0,0,1-.47-3.07s1.21-.62,1.63-.8a25.83,25.83,0,0,1,4-1.25l.36-.1a24.57,24.57,0,0,1,6.13-.76h5.79a28.12,28.12,0,0,1,21.14,9.58,27.66,27.66,0,0,1,6.65,21.84c-4,30.07-27.49,68.39-47.95,88.07C176.58,222.65,146.51,235.74,114.13,235.74Zm392.13-54.17c-8.69,0-13.28-5.17-13.28-15a.74.74,0,0,0-.74-.77.75.75,0,0,0-.47.17c-16.51,13.66-19.24,14.2-24.34,14.2-3.33,0-7.3-1.7-7.3-9.82,0-4.64,1.48-11.18,4.41-19.43s9.91-25.59,20.86-51.8l10-23.93c7.4-17.64,8.95-23.17,8.95-24.71,0-1.1-.38-1.83-2.26-1.83a1.53,1.53,0,0,0-1.45,1.06,30.87,30.87,0,0,0-1.15,4.89,16.36,16.36,0,0,1-1.11,4.09,9.64,9.64,0,0,1-8.82,6,8.22,8.22,0,0,1-1-.06,6.1,6.1,0,0,1-4.4-2.17,7.12,7.12,0,0,1-1-5.55c.63-4.12,3.84-7.77,9.54-10.88l0-.09.85-.37.3-.12a46.81,46.81,0,0,1,8.12-3.16C505,41.13,507.76,40,510.2,39A7.34,7.34,0,0,1,519,41.37a7.27,7.27,0,0,1,1.22,6.41c-2.6,9.42-7.61,22.56-14.88,39.05-19.52,44.39-29.6,70.47-29.94,77.52a4,4,0,0,0,.68,2.89,2.36,2.36,0,0,0,1.77.59h.28c1.26,0,4-1.11,10.25-6a17.22,17.22,0,0,0,6.54-9.62,81.85,81.85,0,0,1,7.84-19.15A90.47,90.47,0,0,1,527.6,104.2c12.3-9.19,23.45-13.85,33.14-13.85,7.68,0,9.29,3.86,9.29,7.09,0,2.9-1.36,6.23-4.17,10.19A47.47,47.47,0,0,1,555.67,118a66.17,66.17,0,0,1-14.34,7.69c-5.88,2.38-10.31,3.54-13.55,3.54h-.31a5.13,5.13,0,0,1-1-10.16,6,6,0,0,1,1-.1,5.16,5.16,0,0,1,4.45,2.58.82.82,0,0,0,.16.22l.35.36c.27,0,.68,0,1.19,0a17.16,17.16,0,0,0,11.47-4.42l.12-.11c.33-.3.65-.59,1-.87a58,58,0,0,0,6.51-6.2,9.58,9.58,0,0,0,2.51-6.25c0-1.92-.63-4.08-5.51-4.08-7.43,0-15.19,4.68-23.07,13.92a86.81,86.81,0,0,0-14,23.25c-3.64,8.79-5.48,16.71-5.48,23.55s2.55,9.81,8,9.81c6.27,0,12.94-3.56,19.81-10.57A82.27,82.27,0,0,0,550.54,137a2.79,2.79,0,0,1,5.32,1.15c0,7-4.8,15.07-14.27,24C527.88,175,516,181.57,506.26,181.57ZM325.81,180.1a13.88,13.88,0,0,1-10.66-4.62A16.44,16.44,0,0,1,311,164c0-9.74,3.43-20,10.18-30.61a96.39,96.39,0,0,1,26.67-27.31,92.76,92.76,0,0,1,19.9-10.3c7.19-2.69,13.39-4,18.46-4,3.62,0,5.62,1.81,5.62,5.09,0,.13,0,.27,0,.41a6,6,0,0,1-6,5.42h-.41c-1.95-.13-3.69-.2-5.16-.2-18,0-31.93,7-41.48,20.77a86.19,86.19,0,0,0-9.65,19c-2.6,7.09-3.92,13.11-3.92,17.87a11.07,11.07,0,0,0,2.73,7.78,8.78,8.78,0,0,0,6.87,3c6.91,0,14.77-5.76,23.34-17.13s13-22.06,13-31.52a7.73,7.73,0,0,0-1.53-4.9,4.13,4.13,0,0,0-3.35-1.86c-3.68,0-7.36,2.81-10.94,8.36a2.24,2.24,0,0,0-.36,1,5,5,0,0,0,0,.76,6.13,6.13,0,0,1,4.46,3.21,6.37,6.37,0,0,1,0,5.9,4.74,4.74,0,0,1-4.44,2.74,7.66,7.66,0,0,1-2.89-.62l-.09,0-.08-.06c-6.28-4.75-2.38-13.68-2.21-14.06l.07-.14c1.28-3,3.75-6.18,7.32-9.34,5.55-4.9,10.93-7.39,16-7.39a11.41,11.41,0,0,1,8.95,4.29,15.32,15.32,0,0,1,3.6,10.25c0,12.91-8.28,26.73-24.59,41.06C347,173.8,335.18,180.1,325.81,180.1Zm-71.27,0a13.88,13.88,0,0,1-10.66-4.62,16.44,16.44,0,0,1-4.2-11.49c0-9.74,3.43-20,10.18-30.61a96.39,96.39,0,0,1,26.67-27.31,92.76,92.76,0,0,1,19.9-10.3c7.19-2.69,13.39-4,18.46-4,3.62,0,5.62,1.81,5.62,5.09,0,.13,0,.27,0,.42a6,6,0,0,1-6,5.41h-.41c-1.95-.13-3.69-.2-5.16-.2-18,0-31.93,7-41.48,20.77a86.19,86.19,0,0,0-9.65,19c-2.6,7.09-3.92,13.11-3.92,17.87a11.07,11.07,0,0,0,2.73,7.78,8.78,8.78,0,0,0,6.87,3c6.91,0,14.76-5.76,23.34-17.13s13-22.06,13-31.52a7.72,7.72,0,0,0-1.52-4.9,4.13,4.13,0,0,0-3.35-1.86c-3.68,0-7.36,2.81-10.95,8.36a2.41,2.41,0,0,0-.36,1,4.54,4.54,0,0,0,0,.76,6.13,6.13,0,0,1,4.46,3.21,6.37,6.37,0,0,1,0,5.9,4.75,4.75,0,0,1-4.44,2.74,7.66,7.66,0,0,1-2.89-.62l-.09,0-.08-.06c-6.28-4.75-2.38-13.68-2.21-14.06l.07-.15c1.28-3,3.75-6.17,7.32-9.33,5.55-4.9,10.93-7.39,16-7.39a11.41,11.41,0,0,1,9,4.29,15.37,15.37,0,0,1,3.6,10.25c0,12.91-8.28,26.73-24.59,41.06C275.76,173.8,263.91,180.1,254.54,180.1Z"/><path class="cls-6" d="M360.34,160.63q-20.79,18.48-34.53,18.48a12.86,12.86,0,0,1-9.92-4.31A15.38,15.38,0,0,1,312,164q0-14.38,10-30.07a95.24,95.24,0,0,1,26.4-27,91.15,91.15,0,0,1,19.68-10.18q10.67-4,18.11-4,4.62,0,4.62,4.09c0,.11,0,.22,0,.34a5,5,0,0,1-5.36,4.48c-2-.13-3.73-.2-5.23-.2q-27.62,0-42.3,21.2a85.89,85.89,0,0,0-9.76,19.27q-4,10.86-4,18.21a12.09,12.09,0,0,0,3,8.45,9.81,9.81,0,0,0,7.61,3.3q10.9,0,24.14-17.53t13.23-32.12a8.78,8.78,0,0,0-1.74-5.51,5.09,5.09,0,0,0-4.14-2.25q-6.09,0-11.78,8.82a3.21,3.21,0,0,0-.52,1.46c-.12,1.17,0,1.57.41,1.78a1,1,0,0,0,.18,0,5.28,5.28,0,0,1,4,7.69c-1.86,3.64-6,1.67-6,1.67-5.72-4.32-1.89-12.85-1.89-12.85h0c1.21-3,3.58-6,7.14-9.13q8.07-7.14,15.32-7.14a10.4,10.4,0,0,1,8.19,3.94,14.28,14.28,0,0,1,3.36,9.6Q384.59,139.33,360.34,160.63ZM310,110.72a10.4,10.4,0,0,0-8.19-3.94q-7.25,0-15.33,7.14-5.32,4.71-7.13,9.13h0s-3.82,8.53,1.9,12.85c0,0,4.15,2,6-1.67a5.28,5.28,0,0,0-4-7.69,1,1,0,0,1-.18,0c-.4-.21-.53-.61-.41-1.78a3.32,3.32,0,0,1,.51-1.46q5.7-8.82,11.79-8.82a5.09,5.09,0,0,1,4.14,2.25,8.78,8.78,0,0,1,1.73,5.51q0,14.6-13.22,32.12t-24.14,17.53a9.81,9.81,0,0,1-7.61-3.3,12.09,12.09,0,0,1-3-8.45q0-7.35,4-18.21a86.33,86.33,0,0,1,9.77-19.27q14.68-21.19,42.3-21.2c1.5,0,3.25.07,5.23.2a5,5,0,0,0,5.35-4.48c0-.12,0-.23,0-.34q0-4.09-4.62-4.09-7.45,0-18.11,4a91.15,91.15,0,0,0-19.68,10.18,95.24,95.24,0,0,0-26.4,27q-10,15.69-10,30.07a15.38,15.38,0,0,0,3.94,10.81,12.86,12.86,0,0,0,9.92,4.31q13.74,0,34.53-18.48,24.24-21.3,24.25-40.31A14.34,14.34,0,0,0,310,110.72Zm159-5.19c4.48,0,8.12-2.93,8.12-6.56S473.47,92.4,469,92.4l-.28,0-.6,0q-29.07,0-54.69,18.27a116.39,116.39,0,0,0-28.76,28.86q-11.24,16.38-11.23,29.39,0,11.24,8.82,11.23,7.35,0,20.1-9.28T429,146.15q-21.84,85.65-57,85.65c-1,0-2-.05-3-.13a.81.81,0,0,1-.72-1,8.47,8.47,0,0,0-.43-4.42,9.15,9.15,0,0,0-8.2-6,9,9,0,0,0-9.29,9c0,.05,0,.1,0,.14s0,.06,0,.09a8,8,0,0,0,2,5.41,9.08,9.08,0,0,0,3.88,2.8A16.34,16.34,0,0,0,363,239q12.39,0,27.55-9.55a84.54,84.54,0,0,0,24.72-23.3q14.18-20.37,27.5-64.56c1.69-7.54,1.71-13.44.95-18a5.17,5.17,0,0,0-9.94-1,102.76,102.76,0,0,1-11.79,22,102.9,102.9,0,0,1-16.53,18.89q-8.65,7.56-13.91,7.56-6.51,0-6.51-10.18,0-6.72,4.41-16.33a79.36,79.36,0,0,1,11.13-17.68,64.2,64.2,0,0,1,24.77-18.69q14-5.76,34.32-5.77h0a6,6,0,0,1,3.67,1.25A9.17,9.17,0,0,0,469,105.53Zm91.75-14.18q-14.28,0-32.54,13.65a88.93,88.93,0,0,0-24.61,28.55,80.1,80.1,0,0,0-7.75,18.92,18.13,18.13,0,0,1-6.9,10.16q-7.77,6.09-10.81,6.19c-2.66.14-3.92-1.37-3.78-4.51q.52-10.81,30-77.89,10.94-24.77,14.84-38.91a6.39,6.39,0,0,0-8.63-7.59c-2.5,1-5.28,2.16-8.34,3.36a45.84,45.84,0,0,0-8.07,3.14l-.29.11v0c-4.4,2.27-9,5.75-9.76,10.54s1.82,6.29,4.52,6.58a8.62,8.62,0,0,0,8.78-5.34,15.38,15.38,0,0,0,1-3.84,31.24,31.24,0,0,1,1.19-5.06,2.52,2.52,0,0,1,2.39-1.75h0q3.26,0,3.26,2.83,0,3.57-9,25.09l-10,23.93Q469.84,139,465.48,151.29t-4.35,19.1q0,8.82,6.3,8.82c4.79,0,7.46-.53,23.71-14a1.73,1.73,0,0,1,2.84,1.34v0q0,14,12.28,14,14.28,0,34.64-19.2,14-13.12,14-23.2v0a1.79,1.79,0,0,0-3.42-.73,82.6,82.6,0,0,1-15.73,23.5Q525,171.77,515.18,171.76q-9,0-9-10.81,0-10.5,5.56-23.94a87.41,87.41,0,0,1,14.17-23.51q12.18-14.27,23.83-14.27,6.51,0,6.51,5v0a10.65,10.65,0,0,1-2.76,6.9,58.53,58.53,0,0,1-6.63,6.32c-.38.3-.73.62-1.08.94a18,18,0,0,1-13.86,4.57h0a1.54,1.54,0,0,1-.53-.6h0a1.94,1.94,0,0,1-.32-.42,4.13,4.13,0,1,0-3.58,6.18h.31q4.62,0,13.17-3.47a65,65,0,0,0,14.12-7.55,46.38,46.38,0,0,0,10-10.13q4-5.62,4-9.61C569,93.39,566.27,91.35,560.74,91.35Zm-337.06-13h-5.79a23.33,23.33,0,0,0-5.88.73,29.93,29.93,0,0,0-4.18,1.3c-.4.17-1.58.78-1.58.78a.62.62,0,0,0,.18,1.18l1.75.27h.1q14.6,2.32,14.6,15.66,0,14.39-11.13,25a36.66,36.66,0,0,1-26.14,10.61q-13.63,0-21.78-8.66t-8.13-23.15a65.54,65.54,0,0,1,8.08-31.91Q171.86,55.36,185.19,48a63.22,63.22,0,0,1,31.07-7.66q15.12,0,16.27,6.81a3.64,3.64,0,0,1-1.26,2.64,2.06,2.06,0,0,1-.31.28c-2.19,1.5-4.66-.2-7,.33a4.35,4.35,0,0,0-3.14,4.32,5.53,5.53,0,0,0,3.08,4.58,7.76,7.76,0,0,0,5.65.38,9.92,9.92,0,0,0,6.32-5.89,5.12,5.12,0,0,0,.43-1l3.27-11.58A8,8,0,0,0,231.89,31h-.09a93.71,93.71,0,0,0-33,6.19A100.88,100.88,0,0,0,169,54.51,73.28,73.28,0,0,0,150.19,79a67.1,67.1,0,0,0-6.77,29.28q0,15.12,9.39,24.51t24.62,9.4q20.56,0,41.56-19.53,15-13.95,15-28.13a19.05,19.05,0,0,0-.15-2.39,5.53,5.53,0,0,1,.46.52c5.92,9.59,6.53,17.92,4.77,29.25-1.61,10.41-7.45,19.71-12,29.2Q209.55,187.61,183,206.92a98.33,98.33,0,0,1-59.2,19.31,93.6,93.6,0,0,1-38.42-7.82,75.59,75.59,0,0,1-29.07-22.2q-17.85-22.14-17.85-49.43,0-20.06,11.92-32.6t30.91-12.54q17.84,0,34.11,13.54,12.81,10.6,30.65,39.15l8.82,14.07c.54.85,1,1.73,1.59,2.52,3.92,5.16,7.5,9.31,12.67,12.3,7.23,4.17,12.95,4.27,12.95,4.27l.14,0c4.8,0,9.88-1.54,12.78-6.89A10.91,10.91,0,0,0,174.55,173h0a2,2,0,0,0-.11.89c-2.55-1.84-5.26-6.21-6.62-8.6-.26-.52-.54-1-.83-1.52l-.06-.1v0c-.15-.26-.3-.52-.46-.77l-17.37-26.64q-13.54-21-28.29-30.81a57.79,57.79,0,0,0-32.7-9.81q-25.6,0-41.36,16.48T31,155.38q0,36.84,25.82,59,23.71,20.37,57.31,20.37,48.39,0,88.7-38.63c20.82-20,43.76-57.91,47.65-87.48A26.93,26.93,0,0,0,223.68,78.34Z"/></g></g></g></svg>